<svg width="100" height="100" viewBox="0 0 100 100" fill="none" xmlns="http://www.w3.org/2000/svg">
<path d="M20 35C20 33.3431 21.3431 32 23 32H77C78.6569 32 80 33.3431 80 35V37C80 38.6569 78.6569 40 77 40H23C21.3431 40 20 38.6569 20 37V35Z" fill="#08A693"/>
<path d="M20 49C20 47.3431 21.3431 46 23 46H77C78.6569 46 80 47.3431 80 49V51C80 52.6569 78.6569 54 77 54H23C21.3431 54 20 52.6569 20 51V49Z" fill="#08A693"/>
<path d="M20 63C20 61.3431 21.3431 60 23 60H77C78.6569 60 80 61.3431 80 63V65C80 66.6569 78.6569 68 77 68H23C21.3431 68 20 66.6569 20 65V63Z" fill="#08A693"/>
</svg>
