<svg width="100" height="100" viewBox="0 0 100 100" fill="none" xmlns="http://www.w3.org/2000/svg">
<path d="M22.8328 13.8425C22.8057 12.6136 23.7684 11.5896 24.9967 11.541L79.6875 9.375V88.2512H24.4742L22.8328 13.8425Z" fill="#C4C4C4"/>
<path d="M21.0938 13.8822C21.0938 12.6376 22.1027 11.6286 23.3474 11.6286H76.3071V90.5048H23.3474C22.1027 90.5048 21.0938 89.4958 21.0938 88.2512V13.8822Z" fill="#E5E5E5"/>
<path d="M31.8621 39.2488H36.8786C38.0775 39.2488 39.1345 39.4802 40.0494 39.9429C40.9749 40.3951 41.69 41.0367 42.1949 41.8675C42.7102 42.6983 42.9678 43.6659 42.9678 44.7701C42.9678 45.8744 42.7102 46.8419 42.1949 47.6728C41.69 48.5036 40.9749 49.1504 40.0494 49.6131C39.1345 50.0654 38.0775 50.2915 36.8786 50.2915H31.8621V39.2488ZM36.7524 48.1934C37.8567 48.1934 38.7348 47.8884 39.3869 47.2784C40.0494 46.6579 40.3807 45.8218 40.3807 44.7701C40.3807 43.7184 40.0494 42.8876 39.3869 42.2776C38.7348 41.6571 37.8567 41.3469 36.7524 41.3469H34.4177V48.1934H36.7524ZM45.3442 50.4177C44.913 50.4177 44.5502 50.2704 44.2557 49.976C43.9613 49.6815 43.814 49.3134 43.814 48.8717C43.814 48.4195 43.9613 48.0566 44.2557 47.7832C44.5502 47.4992 44.913 47.3573 45.3442 47.3573C45.7754 47.3573 46.1383 47.4992 46.4327 47.7832C46.7272 48.0566 46.8744 48.4195 46.8744 48.8717C46.8744 49.3134 46.7272 49.6815 46.4327 49.976C46.1383 50.2704 45.7754 50.4177 45.3442 50.4177ZM52.5359 50.4177C51.6314 50.4177 50.8164 50.2336 50.0907 49.8655C49.3756 49.4869 48.8129 48.9663 48.4028 48.3038C48.0031 47.6412 47.8033 46.8893 47.8033 46.0479C47.8033 45.2066 48.0031 44.4546 48.4028 43.7921C48.8129 43.1295 49.3756 42.6142 50.0907 42.2461C50.8164 41.8675 51.6314 41.6782 52.5359 41.6782C53.4298 41.6782 54.2081 41.8675 54.8706 42.2461C55.5437 42.6142 56.0327 43.1453 56.3377 43.8394L54.4289 44.8648C53.9872 44.0865 53.351 43.6974 52.5201 43.6974C51.8786 43.6974 51.3475 43.9078 50.9268 44.3284C50.5061 44.7491 50.2958 45.3223 50.2958 46.0479C50.2958 46.7736 50.5061 47.3468 50.9268 47.7674C51.3475 48.1881 51.8786 48.3984 52.5201 48.3984C53.3615 48.3984 53.9977 48.0093 54.4289 47.2311L56.3377 48.2722C56.0327 48.9453 55.5437 49.4712 54.8706 49.8498C54.2081 50.2284 53.4298 50.4177 52.5359 50.4177ZM61.6853 50.4177C60.7914 50.4177 59.9868 50.2336 59.2717 49.8655C58.567 49.4869 58.0149 48.9663 57.6153 48.3038C57.2156 47.6412 57.0158 46.8893 57.0158 46.0479C57.0158 45.2066 57.2156 44.4546 57.6153 43.7921C58.0149 43.1295 58.567 42.6142 59.2717 42.2461C59.9868 41.8675 60.7914 41.6782 61.6853 41.6782C62.5792 41.6782 63.3785 41.8675 64.0831 42.2461C64.7878 42.6142 65.3399 43.1295 65.7395 43.7921C66.1392 44.4546 66.339 45.2066 66.339 46.0479C66.339 46.8893 66.1392 47.6412 65.7395 48.3038C65.3399 48.9663 64.7878 49.4869 64.0831 49.8655C63.3785 50.2336 62.5792 50.4177 61.6853 50.4177ZM61.6853 48.3984C62.3163 48.3984 62.8316 48.1881 63.2313 47.7674C63.6414 47.3362 63.8465 46.7631 63.8465 46.0479C63.8465 45.3328 63.6414 44.7649 63.2313 44.3442C62.8316 43.913 62.3163 43.6974 61.6853 43.6974C61.0543 43.6974 60.5337 43.913 60.1235 44.3442C59.7134 44.7649 59.5083 45.3328 59.5083 46.0479C59.5083 46.7631 59.7134 47.3362 60.1235 47.7674C60.5337 48.1881 61.0543 48.3984 61.6853 48.3984Z" fill="#08A693"/>
</svg>
