<svg width="100" height="100" viewBox="0 0 100 100" fill="none" xmlns="http://www.w3.org/2000/svg">
<path d="M29.5403 28.1184C30.7135 26.9485 32.613 26.951 33.783 28.1242L71.9148 66.3598C73.0848 67.533 73.0822 69.4325 71.909 70.6025L70.4929 72.0147C69.3197 73.1847 67.4203 73.1821 66.2503 72.009L28.1184 33.7734C26.9485 32.6002 26.951 30.7007 28.1242 29.5307L29.5403 28.1184Z" fill="#08A693"/>
<path d="M29.5767 72.4147C30.762 73.5724 32.6613 73.5502 33.8191 72.3649L71.5526 33.7362C72.7104 32.551 72.6881 30.6516 71.5029 29.4939L70.0722 28.0963C68.887 26.9386 66.9876 26.9608 65.8298 28.146L28.0963 66.7748C26.9386 67.96 26.9608 69.8594 28.146 71.0171L29.5767 72.4147Z" fill="#08A693"/>
</svg>
